<svg width="49" height="49" fill="none" xmlns="http://www.w3.org/2000/svg"><path d="m45.125 3.156-8.813-1.969c-2.062-.468-4.124.563-4.874 2.438l-4.125 9.563c-.75 1.687-.282 3.75 1.218 4.968l3.75 3.094c-2.625 4.875-6.75 8.906-11.625 11.625l-3.093-3.75c-1.22-1.5-3.282-1.969-4.97-1.219l-9.562 4.032C1.156 32.78.125 34.843.594 36.906l1.969 8.813C3.03 47.687 4.813 49 6.78 49 29.75 49 48.5 30.437 48.5 7.375c0-1.969-1.406-3.75-3.375-4.219zM6.969 44.5 5 36.062l9.188-3.937 5.25 6.375c9.28-4.406 14.062-9.188 18.468-18.469l-6.375-5.25 3.938-9.187L44 7.562C43.906 27.907 27.312 44.407 6.969 44.5z" fill="#F7654A"/></svg>